<?xml version="1.0" encoding="utf-8"?>
<!-- Generator: Adobe Illustrator 25.3.1, SVG Export Plug-In . SVG Version: 6.00 Build 0)  -->
<svg version="1.1" id="Layer_1" xmlns="http://www.w3.org/2000/svg" xmlns:xlink="http://www.w3.org/1999/xlink" x="0px" y="0px"
	 viewBox="0 0 740.5 740.5" style="enable-background:new 0 0 740.5 740.5;" xml:space="preserve">
<style type="text/css">
	.st0{display:none;}
	.st1{display:inline;opacity:0.1;}
	.st2{fill:#85005F;stroke:#000000;stroke-width:5;stroke-miterlimit:10;}
	.st3{fill:#FFFFFF;stroke:#000000;stroke-width:5;stroke-miterlimit:10;}
	.st4{fill:#E5F252;stroke:#000000;stroke-width:5;stroke-miterlimit:10;}
	.st5{fill:none;stroke:#000000;stroke-width:5;stroke-miterlimit:10;}
	.st6{opacity:0.46;fill:none;stroke:#000000;stroke-width:5;stroke-miterlimit:10;enable-background:new    ;}
	.st7{font-family:'MyriadPro-Bold';}
	.st8{font-size:54px;}
</style>
<g id="Background">
</g>
<g id="Layer_2_1_" class="st0">
	<g id="Contours" class="st1">
		<path d="M740.4,20.7l0.1,699"/>
		<path d="M398.9,147.8c-2.7-0.6-6.2-2.7-5.1-5.3c3-6.9,6-13.8,9-20.7c1.6-3.6,3.2-7.3,6.2-9.8s7.7-3.4,10.7-1
			c2.7,2.2,3.2,6.1,3.3,9.6c0.3,9.7-0.5,19.7,3,28.8C416.9,150.3,407.7,149.8,398.9,147.8 M400.5,143.8c0.3,0.7,1.2,0.8,1.9,0.9
			c3.7,0.4,7.5,0.8,11.2,1.2c1.3,0.1,2.8,0.2,3.7-0.8c0.7-0.8,0.7-1.9,0.7-2.9c-0.2-9.5-0.7-19-1.6-28.4c-2.6-0.5-4.4,2.3-5.5,4.7
			c-3.4,7.8-6.8,15.6-10.2,23.4C400.5,142.5,400.2,143.2,400.5,143.8z"/>
		<path d="M429.1,252.2c-1.5-2.4-2.6-5-3.6-7.7c-2.7-7.1-4.9-14.8-3.2-22.2c0.4-1.9,1.2-3.8,2.8-4.9c1.6-1.1,4.1-1.1,5.1,0.5
			c9.3,14.4,19.4,28.3,30.3,41.6C450.3,265.7,435.6,262.2,429.1,252.2 M450.9,257.6c-7-10.2-14-20.4-21-30.7
			c-0.8-1.1-1.5-2.2-2.3-3.3c-2.3,6.4,0.3,13.4,3.2,19.6c1.9,4.1,4.1,8.3,7.5,11.4C441.7,257.6,446.7,259.3,450.9,257.6z"/>
		<path d="M171.9,119c-1.9,0.5-4.2,1-5.8-0.3s-1.5-3.8-1.2-5.9c1.2-8.9,2.3-17.9,3.5-26.8c0.1-1.1,0.9-2.6,1.9-2.1
			c7.3,3.9,16.7-5.3,24.1-1.7c1.5,0.7,2.8,2.2,2.3,3.8c-2.1,7.4-2.8,15.2-1.8,22.8c0.4,2.8-3,4.5-5.8,5.3
			C183.4,115.7,177.7,117.4,171.9,119 M192.9,85.8c-5.3,0.2-10.5,1.4-15.3,3.5c-1.2,0.5-2.4,1.1-3.3,2.1c-1.2,1.4-1.6,3.3-1.8,5.2
			c-0.8,5.9-1.3,11.9-1.4,17.8c4.5-1,9.1-2.1,13.6-3.1c2.2-0.5,5-1.8,4.6-4.1C187.9,99.9,189.2,92.2,192.9,85.8z"/>
		<path d="M733.1,483.3c0.7-1.1,2.8-0.5,2.8,0.8c-0.8,1.1-2.9,0.4-2.9-0.9L733.1,483.3z"/>
		<path d="M218.3,290.9c4.4-5.6,8.9-11.2,13.3-16.8c3-3.8,9.4-3.1,13,0.1s5.3,8.1,6.8,12.7c1.3,4.1,2.7,8.3,4,12.4
			c0.3,0.8,0.3,2-0.6,2.1c-11.8,1.3-23.9-0.3-35-4.7c-1.2-0.5-2.5-1.1-2.8-2.3C216.6,293.1,217.5,291.9,218.3,290.9 M226.4,294.7
			c5.6,0.9,11.1,1.8,16.7,2.7c1.2,0.2,2.6,0.3,3.3-0.7c0.5-0.7,0.4-1.6,0.3-2.4c-0.7-6.8-2.2-14.7-8.3-17.8
			c-4.2,4.5-8.4,9-12.6,13.5c-1,1.1-2.1,2.9-1,4C225.2,294.5,225.8,294.6,226.4,294.7z"/>
		<path d="M546,138.6c3-2.2,6.2-4.6,9.9-5.1c4.8-0.7,9.5,1.9,13.4,4.7c3.6,2.6,7,5.6,8.9,9.6s1.9,9.1-0.9,12.5
			c-7.2,8.7-14.3,17.5-21.5,26.2c-1.7,2-3.7,4.2-6.3,4.3c-3.3,0-5.4-3.2-7-6.1c-4.8-8.9-9.6-17.8-14.4-26.7c-0.4-0.8-0.9-1.7-1-2.6
			c-0.2-2.3,1.9-4.1,3.7-5.5C535.9,146.1,540.9,142.4,546,138.6 M535.7,159.3c3.6,7.1,7.1,14.1,10.7,21.2c0.4,0.9,0.9,1.8,1.8,2.2
			c1.7,0.8,3.5-0.8,4.7-2.2c5.1-6.2,10.3-12.4,15.4-18.5c2.3-2.7,4.7-5.8,4.7-9.3c0-5.1-4.7-8.7-8.9-11.5c-1.6-1.1-3.3-2.2-5.3-2.3
			c-2.1-0.1-4.1,1-5.9,2.1c-5.6,3.5-10.9,7.6-15.9,12c-1,0.9-2.1,2-2.2,3.3C534.8,157.3,535.3,158.3,535.7,159.3z"/>
		<path d="M437.7,88c-2.8-2.5-3.7-6.4-4.3-10.1c-0.6-3.6-1-7.4,0-10.9s3.8-6.8,7.5-7.3c3.9-0.5,7.6,2.3,10,5.5
			c4,5.2,5.9,12.4,3.2,18.4S442.6,92.3,437.7,88 M439.5,81.9c0.5,1.3,1.1,2.6,2.2,3.3c1.7,1,4,0.4,5.3-1c1.4-1.4,1.9-3.4,2.1-5.3
			c0.4-4.4-1.1-8.8-3.9-12.2c-1.3-1.5-3.4-2.8-5-1.6c-0.7,0.5-1,1.4-1.3,2.3C437.6,72.2,437.8,77.3,439.5,81.9z"/>
		<path d="M62.7,291.9c-2.8-2-3.9-5.6-4.2-9c-0.6-6,0.5-12.2,3.1-17.6c1.2-2.5,2.8-4.9,5.3-6.1s5.9-0.7,7.3,1.7
			c-4.1,0.4-7.5,3.7-9.2,7.5c-1.7,3.8-2.1,8-2.4,12.1c-0.2,2.2-0.3,4.5,0.4,6.6s2.7,3.9,5,3.8c2.8-0.2,4.5-3.2,5.7-5.8
			c3.5-7.8,6.9-15.6,10.4-23.5c1.4,5.4-0.4,11.1-2.3,16.3c-1.5,4.3-3.1,8.8-6.4,12C71.9,293.1,66.4,294.5,62.7,291.9z"/>
		<path d="M287.6,604.8c-1,1.6-3.5,0.5-5-0.8c-7.1-6.1-14.1-12.2-21.2-18.3c0.4,5.8,0.9,11.6,1.3,17.4c0.1,2,0.3,4.1-0.7,5.8
			s-3.5,2.7-5,1.4c-1-0.9-1.1-2.4-1.2-3.7c-0.6-18-1.3-36.1-1.9-54.1c0-1.1,0-2.5,0.9-3.1c2-1.5,4,1.8,4.3,4.3
			c0.8,6.8,1.6,13.5,2.3,20.3c5.1-2.7,8.9-7.7,10.3-13.3c0.6-2.7,1.7-6.3,4.4-6c2.8,0.3,3,4.3,2.1,6.9c-2.8,7.9-9.2,14.5-17.1,17.5
			c9.3,6.2,17.9,13.6,25.3,22C287.4,602,288.4,603.6,287.6,604.8z"/>
		<path d="M185.3,465.4c-2.6,2.8-6,6.1-5,9.7c0.5,1.8,2,3.1,3.3,4.4c4.9,4.8,8.8,10.7,11.1,17.1c-2.3,1.8-5.8,0.5-7.6-1.8
			s-2.5-5.2-3.8-7.8s-3.6-5.1-6.5-5.1c0.3,3.9,0.6,7.8,0.9,11.7c0.1,1.1,0.1,2.3-0.6,3.2c-1,1.2-3,0.8-4.1-0.3
			c-1.1-1.1-1.5-2.7-1.8-4.2c-2.9-14.5-3.9-29.4-2.7-44.1c0.1-1.1,0.3-2.3,1.2-2.9c0.6-0.3,1.2-0.3,1.9-0.3c3.3,0.2,6.7,0.3,10,0.5
			c3.9,0.2,8.8,1.1,9.8,4.9c0.4,1.4,0.1,2.8-0.3,4.2C190,458.7,188,462.4,185.3,465.4 M185.6,452.6c-0.7-3.5-6.3-3.6-8.5-0.8
			c-2.2,2.8-1.9,6.8-1.5,10.3c0.3,2.5,0.5,5,0.8,7.5c2.5-4,5.1-8.1,7.6-12.1C185,455.9,185.9,454.3,185.6,452.6z"/>
		<path d="M272.4,451.9c-1,0.1-2.1,0.1-2.8-0.6c-1.3-1.4,0.3-3.6,1.9-4.5c2.7-1.6,5.8-2.3,8.9-2.1c0.6,0.6,0.7,1.6,0.2,2.3
			C278.7,449.6,275.7,451.5,272.4,451.9z"/>
		<path d="M436.5,535.7c6.3,2,8.6,9.6,10,16.1c0.6,2.7-4,3.6-5.8,1.6c-1.8-2.1-1.7-5.1-2.2-7.8s-2.6-5.7-5.3-5.2
			c-1.8,0.3-2.9-2.4-1.7-3.8C432.6,535.2,434.8,535.1,436.5,535.7z"/>
		<path d="M240.4,486c2.2-3.5,2.9-7.9,5.3-11.2c2.5-3.3,8.3-4.7,10.4-1.1c-3.6,0.6-6.4,4.5-5.8,8.1c0.6,3.6,4.4,6.5,8,5.9
			c4.3-0.6,7-4.7,9.8-8c2.9-3.2,7.9-5.9,11.2-3.3c-2.2,4.4-2.8,9.6-1.5,14.3c3.6-7.6,7.8-15,12.5-22c1.1-1.6,2.2-3.3,3.9-4.2
			c5.1-2.9,11.7,3.1,11.1,8.9s-6.1,10.1-11.7,11.7c8.1,1.8,17.1-0.4,23.4-6c1.9-1.7,3.7-4.1,3.2-6.6c-1.2-5.2-2.3-10.8,0-15.6
			c2.3-4.8,9.6-7.3,13-3.2c5.5,6.8-7.3,16.5-4,24.7c2.2,5.4,11.8,4.6,13-1.1c3.3,3.6-1.1,9.9-6,10.2c-4.9,0.2-9.2-3.2-12.9-6.4
			c-8.2,7-19.7,9.9-30.3,7.7c-2.5-0.5-3.8,2.9-4.1,5.5c-0.6,7-1.2,13.9-1.8,20.9c-0.2,2.3-3.9,2.6-5.3,0.8c-1.5-1.8-1.3-4.4-1.1-6.7
			c0.6-5.8,1.2-11.7,1.8-17.5c-2,2.7-6.2,3.4-8.9,1.5c-2.8-1.9-3.7-6-2-8.9c-5.3,6.6-15.5,8.6-22.8,4.5c-4-2.3-8,2.7-11.8,5.4
			c-5.2,3.7-12.5,2.9-18.1-0.2s-9.6-8.3-13.3-13.4c2.4-1.9,2.6-5.4,3.7-8.3c1.7-4.2,6.3-7.2,10.8-6.4c4.5,0.7,8,5.5,6.9,9.9
			s-7,6.9-10.7,4.3c4.4-0.8,5.3-8.2,1.2-10c-4.3,6-2.6,15.4,3.5,19.5C227.1,494.1,236.4,492.2,240.4,486 M293.2,474.5
			c-2.3,2-2.7,5.7-1,8.1c2.6-1.8,5.2-3.8,6.7-6.6c1.4-2.8,1.1-6.8-1.5-8.5c-1.4,2.3-2.8,4.6-4.2,6.8 M328.8,461.2
			c0.3-2,0.3-4.5-1.4-5.5c-2.8,3.7-3.4,9-1.3,13.1c1.6-2.2,2.6-4.9,2.9-7.6H328.8z"/>
		<path d="M146.2,391.9c-1.6,5.7-3.6,11.3-5.8,16.7c-0.8,1.9-3.4,4-4.3,2.2c-0.3-0.6-0.1-1.4,0.1-2.1c1.2-3.7,2.4-7.4,3.6-11.1
			C140.7,394.5,143.2,390.7,146.2,391.9z"/>
		<path d="M280.9,400.1c-0.8,1.4-1.8,2.8-3.1,3.7c-3.2,2.1-7.9,0.7-10.4-2.2c-2.6-2.9-3.5-6.9-4.2-10.7c-0.5-2.7-0.9-5.4-0.1-8
			s3.1-4.9,5.8-4.9c2.7,0,5.2-1.5,7.7-2.6s5.7-1.6,7.7,0.1c1.8,1.5,2.1,4.2,2,6.6C285.9,388.4,284.1,394.6,280.9,400.1 M273.8,381.2
			c-4.1,0.3-5.2,5.8-4.6,9.9c0.5,3.6,1.6,7.3,4.3,9.7c1-2,2.1-4,3.1-6c1.3-2.5,2.6-5.2,2.5-8C278.9,383.9,276.6,381,273.8,381.2z"/>
		<path d="M345.1,364.6c1.5-0.5,3-1.1,4.6-1c5.6,0.3,7.9,7.4,7.5,12.9c-0.5,6.1-2.7,12.1-6.3,17.1c-1.9,2.7-4.4,5.1-7.6,5.9
			c-4.1,0.9-8.3-1.3-11-4.5c-5.6-6.6-5.1-17.5,1-23.7C336.5,368,340.8,366.2,345.1,364.6 M342.3,371.2c-6.6,4.2-8.8,14-4.6,20.6
			c1,1.5,2.5,3,4.3,2.7c1.7-0.3,2.6-2,3.4-3.5c2.1-4.5,3.8-9.2,5.1-14c0.5-1.8,0.9-3.9-0.1-5.5C348.7,369.1,344.8,369.6,342.3,371.2
			z"/>
		<path d="M297.7,595.9c-3.6-6.7-2.7-16.2,3.6-20.5c4.3-2.9,10-2.8,15.2-2.6c7.5,0.3,14.9,0.6,22.4,0.9c3.6,0.1,4.2,5.3,3.3,8.8
			c-1,3.5-2,8.1,1.1,10c3.8-8.9,7.6-17.8,11.5-26.7c1-2.3,2-4.6,2-7c0.1-12,0.2-24.1,0.2-36.1c0-3,1-7,4-7c3.2,0,4,4.4,3.8,7.6
			c-0.9,12.2-1.8,24.3-2.7,36.5c5.4-4.2,4.2-14.8,10.8-16.8c3.2-1,6.8,1.1,8.5,4s1.9,6.5,1.6,9.9c-0.3,4.5-1.4,9-3.1,13.2
			c3.2,0.7,6.6,1.4,9.7,0.3s5.6-4.7,4.2-7.7c-2.1-4.7-4.1-9.8-3.8-15s3.8-10.5,8.9-11.3c5.8-0.9,11.2,4.6,11.8,10.4
			s-2.7,11.5-6.9,15.6c-2,1.9,1.3,5.4,3.9,4.6c2.6-0.8,4-3.7,5-6.3c2.8-7,5.6-14,8.3-21.1c1.2-2.9,5.9-2.5,7.7,0.1
			c1.8,2.6,1.6,6,1.2,9.1c-0.4,3.8-0.8,7.6-1.2,11.4c-0.3,2.6-1.3,5.9-3.9,5.9c-2.9,0-3.6-4.2-2.8-7c0.8-2.8,1.8-6.4-0.6-8.2
			c-1.1,5.3-2.4,10.8-5.7,15c-3.3,4.3-9.4,6.9-14.3,4.6c-3.7-1.7-7.1,2.7-10.9,4.2c-4.5,1.8-9.4-0.8-14.1-1.6s-11.2,2.3-9.9,6.9
			c0.7,2.5-3.6,3.6-5.3,1.6c-1.7-2-1.3-4.8-1.2-7.4c0.1-2.6-0.5-5.7-2.8-6.6c-1.2,8.7-3.7,17.1-7.5,25c-1.2,2.5-2.6,5-4.9,6.4
			s-5.9,1.3-7.3-1.1c-2-3.2-0.6-9.7-4.4-9.4c-1.7,3.9-8,1.7-10.2-1.9c-2.3-3.6-3.7-8.5-7.8-9.8c-3.5-1.1-7.3,1.5-9,4.7
			s-1.7,7.1-1.8,10.8c0,2.8-1.2,6.6-4,6.2C299.3,598.4,298.3,597.2,297.7,595.9 M364.6,563.2c-0.3,2.6,2.5,4.8,5.1,4.5
			s4.6-2.5,5.5-5s0.9-5.1,0.8-7.7c0-1.5,0-2.9-0.1-4.4c0-0.6,0-1.1-0.3-1.6c-0.8-1.5-3.3-1-4.2,0.5c-0.9,1.4-0.9,3.3-1.2,5
			C369.7,557.9,367.4,561,364.6,563.2 M398.5,540.8c-1.8,5.7-1.7,12,0.2,17.6c0.1,0.4,0.3,0.8,0.7,1.1c0.9,0.5,1.9-0.5,2.4-1.4
			c1.8-3.2,3.5-6.6,3.4-10.2C405,544.3,402.1,540.5,398.5,540.8 M331.9,581.2c-1.2-1.2-2.3-2.4-3.5-3.5c-1.2,1.1-1.7,2.7-1.6,4.3
			c0.1,1.9,1.3,4,3.2,4.2c1.9,0.1,3.2-3,1.4-3.8L331.9,581.2z"/>
		<path d="M66.6,351.2C50.5,395.8,29.8,438.7,4.8,479c-3.4,5.4-3.5,12.2-3.5,18.6c-0.4,74-0.9,148.1-1.3,222.1
			c0.1-233,0.2-466,0.2-699c0.4,142.7,0.9,285.4,1.3,428.1c1.2-16.7,6.7-33.1,15.8-47.1c8.5-13.1,20.2-24.4,25.6-39
			c5.9-16,9-39.5,26.1-39.7c9-0.1,15.9-7.7,21.6-14.6c18-21.8,35.9-43.6,53.9-65.4c-2.3-15.6-25.4-22.9-36.3-11.5
			c0.2-7.7,3.4-15.2,8.9-20.6c0-9.5-8.1-17.3-16.8-21.1c-8.7-3.9-18.3-5-27.3-8.3c-22-8.2-37.2-28.5-47.1-49.7
			c-2.6-5.6-5-11.6-5.1-17.8c-0.2-21.4,28.4-33.3,48-24.8s30.8,29.2,38.7,49s14.7,41.2,30.2,56c17.8-10.9,44.9,4.8,44.3,25.6
			c-0.2,7.5-3.3,14.7-3.5,22.2s4,16.2,11.5,16.8c2.4,6.1-4.9,12.4-11.4,11.9c-6.5-0.6-11.8-5.3-16.6-9.8
			c-20.6,20.6-38.8,43.4-54.4,68c24.5,1.5,49.9,6.4,69.5,21.3s31.4,42.2,22.1,65c22.3-1.4,44.6-2.8,66.9-4.3
			c-9.1-3.1-19-6.7-24-14.9c-5-8.3-0.6-22,9.1-21.9c16.4,0.1,29.9-14.4,34.3-30.2s1.7-32.6-1.1-48.7c-1.3-7.8-4.5-17.4-12.3-18
			c-6.5-0.6-12-6.9-11.6-13.5s6.6-12.2,13.2-11.9c-2.4,5.8-4.8,11.7-7.1,17.5c6.5,6,17.5,3.9,23.9-2.1s9.4-14.8,12.1-23.2
			c-10.5,1.6-20.9,3.2-31.4,4.8c-2.8,0.4-5.7,0.8-8.3-0.2c-5.7-2.4-6.4-10-6.3-16.1c1.1-43.7,2.2-87.5,3.3-131.2
			c0.1-3.2,0.3-6.7,2.6-9c2.3-2.2,5.8-2.4,9-2.4c32-0.4,63.9-0.8,95.9-1.2c1.5,44.4,3,88.9,4.4,133.3c0.2,6.4,0.3,13.3-3.3,18.7
			c-3.6,5.3-12.5,7.3-16.4,2.2c10.3,3,16.9,14.9,14.1,25.2c-2.8,10.3-14.7,17.1-25,14.4c1.1,17.6,2.2,35.1,3.3,52.7
			c0.7,11.1,5.5,25.8,16.5,24.4c10-1.3,14,13.7,9.3,22.6s-13.7,15.4-16.5,25.1c18.1-5.1,37.6-0.9,56.3-3.4
			c18.7-2.5,39.1-16.5,36.7-35.2c9.6,8.1,17.4,18.2,22.8,29.6c-8.4-3.1-15.3-9.7-18.8-17.9c-4.1,7.1-8.2,14.2-12.2,21.3
			c17.6-1.1,35.2-2.3,52.8-3.4c10.9-0.7,25.7-6.2,23.1-16.8c-7.4-30.5,12.7-60.2,31.7-85.2c6.6-8.7,13.6-17.7,23.3-22.5
			c9.1-4.5,19.7-5,29.8-3.8c52.5,5.8,96.1,56.3,94.2,109.1c6.8,4,13.6-5.6,14.7-13.4s2.8-18.1,10.7-19.1c2.1,9.6,1.4,19.7-1.8,29
			c-2-5.1-2.9-10.6-2.6-16c-1.5,6.1-3,12.3-4.5,18.4c8.1-0.3,16.1-0.6,24.2-0.9c-6.5,4.2-14.5,6-22.2,4.9
			c-10.4-1.5-19.8,8-22.1,18.3s0.7,20.9,3.6,31c14.8-1.4,29.7-2.9,44.5-4.3c-7.2,4.7-15.4,8-23.9,9.7c-1.7,13.4-3.8,27.8-13.3,37.4
			c-10.5,10.8-29.3,12.1-41.3,3c-12-9.2-15.6-27.6-7.9-40.6c-26.8,0.7-53.6,1.5-80.3,2.2c-9.2,0.3-21.1,2.9-22,12
			c-3.3,32.7-20.7,62.9-43.6,86.6c-22.9,23.6-51.1,41.4-79.9,57.3c-54.4,30-115.3,54.9-177,47.6c-45.9-5.4-89.2-29.1-119.7-63.8
			s-48.4-80.1-51.3-126.2C75.5,417.5,80.7,381.9,66.6,351.2 M389.6,605.5c52.6-24.7,107.5-53.8,135.4-104.8
			c18.7-34.2,22.8-74.2,36.2-110.8c1,15-1,30.1-5.8,44.3c27.6-1.3,55.2-2.7,82.8-4c4.8-0.2,11.2-2,11.1-6.8
			c-0.1-14.4-0.1-28.7-0.2-43.1c-48.7-1-96.5,12.3-144.7,19.2c-28.1,4-56.5,5.9-84.8,7.8c-50.9,3.4-101.8,6.7-152.8,9.3
			c-61,3.1-122.5,5.1-183-3.3c-7.2,53.7,8.7,110.1,42.9,152.1s86.1,69.1,140.1,73C309.5,641.5,350.7,623.7,389.6,605.5 M363.4,91
			c-17,4.4-34.9,5.2-52.2,2.5c-2.8-0.4-5.6,1.6-6.9,4.2s-1.5,5.6-1.6,8.4c-1.4,34,1,68.2,7.1,101.7c0.4,2.4,1.8,5.4,4.2,4.9
			c15.4-3.7,31.5-4.2,47.1-1.5c2.6,0.4,5-2,5.5-4.6s-0.3-5.2-0.9-7.8c-4.3-16.4-3.9-33.7-3.5-50.7C362.5,129.1,363,110,363.4,91
			 M697.5,466.1c-15.5-8.5-23.8-26.3-26.6-43.7s-1-35.3-1.9-52.9s-4.9-36.1-17-49c-7.3-7.8-17.1-13-27.1-16.9
			c-15.1-5.8-32.6-8.9-47.1-1.7c-7.1,3.6-12.9,9.4-17.7,15.7c-15.6,20.5-21.7,46.5-27.4,71.7c8.1,2.6,17.7-1.1,21.9-8.5
			c8.6-15.1-6-36.4,3.8-50.8c4.5-6.6,13.2-9.4,21.2-9c8,0.5,15.6,3.7,23,6.8c10,4.2,20,8.5,29.9,12.7c9.1,3.9,19.6,9.6,20.1,19.5
			c1.6,29.9,3.1,59.7,4.7,89.6c0.4,7.6,0.9,15.6,5,22s13.1,10.4,19.6,6.4C687.6,474.7,692.8,470.6,697.5,466.1 M630.1,300
			c10.6,4.3,20.9,10.1,28.5,18.6c15.5,17.4,17.2,42.8,17.2,66.1c0,23.3-0.4,48.2,12.3,67.8c2.9,4.4,9.4,8.5,12.7,4.4
			c3.6-4.5,6.6-10.1,5.5-15.7s-8.4-9.9-12.8-6.3c-1.6,4.3-1,9.3,1.4,13.1c-0.1-5,3.8-9.9,8.8-10.8c-0.3,4-0.7,8.1-3,11.4
			s-7,5.1-10.4,3c-3.1-2-3.6-6.2-3.9-9.8c-1.7-26.9-1.4-54,0.9-80.9c1-11.4-5.3-22-11.3-31.7c-8.9-14.3-18.1-29-31.9-38.8
			c-9.7-6.8-21.1-10.8-32.6-13.5c-16.9-4-36.9-4.6-49.2,7.6c-5.8,5.8-9.1,13.6-13.7,20.3c-4.8,7-11.2,12.9-16,19.8
			c-14,20.1-14.1,46.4-13.7,70.9c8.2-6,10.9-16.8,13.3-26.7c3.7-15.2,7.9-30.5,15.7-44s19.7-25.3,34.7-29.9
			C598,290.3,615,293.8,630.1,300 M347,405.2c2.3-2.1,2.6-5.7,4.1-8.5c2.7-5.4,9.2-7.7,12.9-12.5c5.4-7,2.5-18.8-5.6-22.4
			c-6-2.7-14.5-1.8-17.8-7.5c-1.3-2.2-1.4-4.9-1.5-7.4c-0.4-12.3-0.8-24.5-1.1-36.8c-6.7-1.4-11.1,6.6-13,13.1
			c-4.2,14.4-7.4,29.1-9.6,44c-0.7,4.6-7.6,5.6-11.1,2.5c-3.5-3-4.4-8-5-12.6c-2.5-16.9-4.9-33.9-7.4-50.8
			c-0.6,11.8-1.2,23.7-1.8,35.5c-0.6,11.3-2.3,24.6-12.3,30c-6.1,3.3-13.6,2.4-20.5,3.8c-6.8,1.4-14.2,7.2-12.4,13.9
			c2.5,9.5,18.3,7.7,23.4,16.1c4.1,6.8,13.7,6.9,21.7,6.2c16.5-1.5,33-2.9,49.5-4.4C342.2,407.4,345,407,347,405.2 M131.2,350.4
			c-3.3-1.1-6.9-1.1-10.5-1c-6.5,0.1-13,0.2-19.5,0.4c-6.9,16.8-5.5,36.8,3.5,52.6c2.5,4.4,6.2,8.8,11.3,9.2
			c14.1,1.1,28.3,2.1,42.4,3.2c-4-9.3-8-18.6-12-28c-0.4-0.9-0.8-1.9-0.4-2.7c0.5-1.3,2.5-1.5,3.7-0.6c1.2,0.8,1.7,2.2,2.2,3.6
			c2.5,6.7,4.9,13.3,7.4,20c1.3,3.6,3.2,7.7,6.9,8.5c3.5,0.8,7-2,8.3-5.3s0.9-7.1,0.4-10.6c-1.1-7.2-2.7-14.6-7.2-20.4
			c-2.4-3.1-5.5-5.6-8.6-8c-6.4-5.1-12.8-10.1-19.2-15.2C137.3,353.7,134.5,351.5,131.2,350.4 M301.8,214c2.1-1.6,1.9-4.8,1.4-7.4
			c-5.3-31.5-7.5-63.6-6.6-95.6c0.2-5.5,0.5-11.4,3.7-15.9c-9.9-2-20.2-2.1-30.2-0.5c-1.7,0.3-3.6,0.7-4.5,2.2
			c-0.5,0.9-0.6,2-0.6,3.1c-0.4,41.7-0.8,83.4-1.1,125.2c5.4-1.9,11.7-5.1,11.8-10.8c0.7-21.9,1.3-43.7,2-65.6
			c0.5-15.3,0.9-30.9,5.1-45.6c0.6-2.3,1.6-4.8,3.7-5.7c2.2-1,5.3,1.3,4.2,3.4c-6.4,12.1-7,26.4-7.4,40.2
			c-0.8,25.6-1.6,51.2-2.4,76.8c5.8-0.8,11.5-1.6,17.3-2.4C299.6,215,300.9,214.8,301.8,214 M563.8,333.3
			c-7.8,11.8,4.1,28.4-1.4,41.5c-1.1,2.7,1,5.8,3.7,6.8s5.7,0.5,8.5,0.1c19.7-3.1,39.6-4.8,59.5-4.8c6.8,0,12.5-6.8,12.4-13.6
			s-5-13-11.3-15.8c-11.5-5.2-22.9-10.3-34.4-15.5c-6.2-2.8-12.5-5.6-19.3-6.1S567.5,327.6,563.8,333.3 M138.9,256.9
			c-6.3,7.8-12.5,15.5-18.8,23.3c-11.8,14.6-23.7,29.3-32.1,46.1s-13.2,35.9-10,54.4c2.6,14.3,12,29.1,26.4,31.3
			c-17.7-22.1-17-54.6-5.6-80.5s31.8-46.6,51.8-66.5c8.2-8.2,16.7-16.5,21.7-27c5.1-10.5,6.1-23.6-0.2-33.3s-21.5-13.5-30.1-5.7
			c0.7,4.3,5.7,6.4,10,6.7s8.9-0.3,12.7,1.7c7.4,3.7,7.7,14.5,3.9,21.8c-3.9,7.3-10.6,12.6-15.1,19.5
			C147.8,247.1,142.6,252.3,138.9,256.9 M318.9,252.5c-0.5-3.1-0.7-6.4-2.8-8.8c-2.1-2.3-6.8-2.4-7.6,0.6
			c-3.2,11.3-9.1,21.8-17,30.4c-2.8,3.1-2.6,7.8-2.1,12c0.7,6.3,1.5,13,5.3,18.1c12.9,16.8,3.5,42.7,14.2,61
			c3.9-11.4,4.2-23.7,7.2-35.4c3-11.7,9.8-23.5,21.1-27.5C334.5,285.1,321.5,270.2,318.9,252.5 M366.6,233.4
			c-0.6-3.7-1.3-7.4-1.9-11.1c-0.3-1.8-0.7-3.6-1.8-5c-2-2.4-5.5-2.7-8.6-2.7c-27.9-0.1-55.8,3.5-82.4,11.9c-3.1,1-6.2,2.1-8.6,4.2
			c-2.4,2.2-3.8,5.7-2.5,8.7c2.2,5.3,9.8,4.6,15.4,3.3c28.2-6.9,57.7-8.5,86.5-4.7c1,0.1,2.2,0.3,3.1-0.4
			C367,236.8,366.9,234.9,366.6,233.4 M80.5,325.3C71,325,61.4,330,56.4,338.1c-5.8,9.2-5.6,21-9.6,31.1
			C39,388.8,16,400.8,12.6,421.6c-1.6,9.5,0.9,20.8-5.8,27.8c-6.4,6.8-8.3,17.5-4.7,26.1c2.6-7.5,6.2-14.6,10.6-21.2
			c5-7.4,11-14.2,15.5-21.9c9.4-16.4,11.2-36.1,18.6-53.6c4.9-11.6,12.3-22.1,21.6-30.7C74.8,342.2,79.2,334,80.5,325.3 M45,98
			c26.2,10.9,46.8,32.4,61.6,56.5c0.8-23.5-16.2-44.2-35.9-57c-9.4-6.2-21.7-11.1-31.6-5.9c-5.5,2.9-9,8.3-12.4,13.5
			c-2.7,4.2-1.3,9.6,0.4,14.3c8.6,22.7,24.5,42.5,44.4,56.4c7.4,5.2,18.1,9.4,25,3.5c-15.1-4.8-29-13.3-40.1-24.7
			c-11.5-11.9-19.8-26.5-26.1-41.8c-1.3-3.2-2.3-7.5,0.4-9.6c7.5,13.9,14.9,27.8,22.4,41.7c1.7-3.2,0.1-7-1.5-10.3
			c-5.9-12.2-11.9-24.3-17.8-36.5C36.7,95.4,41.4,96.5,45,98 M119.6,333.2c-4.6-0.5-9.6-0.5-13.5,1.9s-6.3,7.9-3.9,11.9
			c10.1-4.3,21.9-3.3,32.2,0.8c10.2,4,19.1,10.8,27.4,18.1c6.1,5.4,12.1,11.3,16.1,18.5s6,15.8,3.8,23.7c-0.9,3.3,2.6,6.6,6,6.3
			c3.4-0.3,6.1-3.2,7.1-6.5s0.8-6.7,0.6-10.1c-1.1-14.4-3.4-30.2-14.1-39.9c-4.4-3.9-9.8-6.5-15.1-9
			C151.2,342,135.9,335,119.6,333.2 M104.6,173c-24.1-17-41.6-41.6-58.5-65.7c1.6-1.4,4,0.3,5.5,1.9c11.3,12.7,22.3,25.5,33.1,38.6
			c6.6,8,13.5,16.3,23.1,20c-12.6-25.7-32.6-47.6-57-62.6c-3.4-2.1-7.7-4-11.1-2.1c10,13.1,15.2,29.3,23.5,43.5s21.7,27.6,38.2,28.1
			C102.6,174.7,104.4,174.3,104.6,173 M103.8,180.2c0,0.6,0.3,1.1,0.6,1.5c13,19.9,28.3,38.4,45.3,55c2.5,2.5,7.2-0.5,7.6-4
			c0.3-3.5-1.9-6.8-4.1-9.6c-13.4-17.7-26.8-35.3-40.3-53c-3.5,2.1-6.5,5-8.6,8.4C104.1,179.1,103.8,179.6,103.8,180.2 M336.2,279.7
			c5.5-3.5,12.1-5.3,18.6-5c4.2,0.2,7.2-4.6,6.8-8.8c-0.4-4.2-3.1-7.7-5.7-11c-2.6-3.3-5.2-6.7-8.6-9.3c-7.3-5.7-17.6-7.1-26.1-3.5
			C329.1,253.2,326.7,269.9,336.2,279.7 M181.4,265.8c2.3-0.8,2.8-4.1,1.7-6.2c-1.2-2.1-3.4-3.5-5.5-4.7c-2.1-1.3-4.2-2.8-5-5.1
			c-2.4,2.2-4.4,4.9-5.6,7.9c3,2.1,6,4.3,8.9,6.4C177.5,265.3,179.5,266.5,181.4,265.8 M155.9,209.1c-1.2-0.1-2.6,0.1-3.6,0.9
			c-0.6,0.5-1,1.2-1.2,1.9c3.2,5.2,7,10,11.2,14.4c2.7-2.7,3.7-7.1,2.3-10.7S159.8,209.4,155.9,209.1 M118,218.5
			c-2.9,1.3-5,4.4-5,7.6c4-2.6,7.9-5.3,11.9-7.9c-1.2-1.1-2.3-2.3-3.5-3.4c-1.2,1.2-2.3,2.3-3.5,3.5L118,218.5z"/>
	</g>
</g>
<g id="Squid">
	<path class="st2" d="M277.7,243.2c-7.1,5.2-15.2,19.9-13.8,24.5c1.6,5.2,6.9,1.1,15.2,6.6c0,0,5.7,2.6,6.5,5.4
		c2.8,10.3,9.1,50.9-1.8,75.4c-7,15.8-9.7,13.2-32.6,19c-10.7,2.7-8.4,16.2-7.5,18.8c1.5,4.3,4.4,6.2,11.9,7.9
		c12.8,3,13.5,7.3,16.3,15.5c13-1.9,50.4-5.6,78.8-6.8c0,0,0.3-3.4,1.8-6.3c4.2-8.1,7.8-10.1,13.2-17.7c5-7,4.4-17.4-3.1-24.6
		c-6-5.7-10.3,1-16.1-5.4c-4.7-5.2-4.6-15.6-5.2-31.4c-1.3-35.6-9.7-40.7-2.3-46.1c6-4.3,12.3,1.1,19-4.3c6.1-5,7.3-14.8,5.4-21.9
		c-3.4-12.5-16.6-17-23.6-19.4c-4.4-1.5-14-4.8-17.6-0.8c-1.6,1.8-1.4,4.4,3.1,19.2c4.1,13.8,6.2,20.8,8.2,25.5
		c4.3,10.4,2.4,12.7,2.1,17.4c-0.5,7.3-1.7,10.4-5.8,15.8c-17,22.4-8.7,49.6-17.4,58.3c-0.8,0.8-2.7,1.2-4.6,0.7
		c-6.9-2-1.2-2-6.2-22.2c-5.8-23.6-7.6-25.1-12.5-42.5c-0.3-1.2-3.3-23.1,1.3-33.4c6.8-15.5,13.8-27.9,19.4-36.9"/>
	<path class="st3" d="M280.8,377.4c5.2,4.1-0.1,15.6-0.3,16.1c-0.9,1.9-3.5,7.4-7,7.2c-2.8-0.1-4.6-3.7-5.9-6.2
		c-1.2-2.3-3.8-7.6-1.3-12.5c1.3-2.6,3.4-3.8,4.1-4.2C273.3,376.2,278,375.3,280.8,377.4z"/>
	<path class="st3" d="M340.1,396.2c-2.9-0.4-4.5-3.7-5.6-5.9c-1.1-2.3-4.4-9-1-14.8c2.3-3.8,6.2-5.1,8.6-5.9s7.8-2.6,10.5,0
		c2.3,2.2,1.4,6.3,0.3,10.9c-0.6,2.5-1.8,7.8-6.3,12.2C344.8,394.4,342.6,396.6,340.1,396.2z"/>
	<polygon class="st4" points="262.6,243.7 262.6,225.1 262.5,91.8 367.3,88.2 368.3,214.6 368.5,240.1 	"/>
	<polyline class="st3" points="368.3,214.6 305.8,214.6 262.6,214.6 	"/>
	<line class="st5" x1="305.8" y1="90.1" x2="305.8" y2="214.6"/>
	<line class="st5" x1="283.8" y1="216.7" x2="282.9" y2="103"/>
</g>
<g id="Layer_1_1_">
	<path class="st5" d="M555.4,434.2c56.8-1.2,113.6-2.4,170.5-3.5c10.7-0.2,21.4-0.4,32.1-0.7v-56.3L561,384L555.4,434.2z"/>
	<path class="st6" d="M557.4,436c56.4-1.2,112.9-2.3,169.3-3.5c10.6-0.2,21.3-0.4,31.9-0.7v-55.9L563,386.2L557.4,436z"/>
	<path class="st2" d="M580.3,274.2c-47.9,8-85.9,102.5-65.3,122c9.4,8.9,33.6,4.5,41.1-7.2c8.2-12.8-6.9-28.8,2.4-45.8
		c5.9-10.8,17.7-14.7,22.2-16.2c25.5-8.4,57.5,7.1,65.9,28.6c2.1,5.5,0.5,5.7,1.1,27.8c0.8,29.9,3.7,28.8,4.1,52.7
		c0.5,25.8,2.2,31.3,9,39.4c8.9,10.6,21.9,7.3,22.7,7.2c27.3-2.5,29.9-41.6,31.9-48.5c1.5-5.1-9.4-3.1-18-2.9
		c-9.2,0.2-0.1,21.4-8.4,26.7c-0.5,0.3-4.6,3-7.5,1.5c-4.9-2.5-3-15.3-1.9-22.3c4.9-31.1,9.2-46.8,10.6-56
		c4.6-30.7-11.9-65-35.4-84.7c-23.3-19.5-50.7-22.1-55.6-22.6C596.4,273.7,587.8,273,580.3,274.2z"/>
	<path class="st2" d="M706.2,376.4c5.4-24.7,8.1-28.9,9.5-28.7c1.4,0.2,3,4.6,2.9,28"/>
	<path class="st5" d="M528.1,393.7c4.7-32.7,14.9-81.8,43.4-90.5c2.6-0.8,35.7-17.3,68,1.1c25.4,14.5,37,42.8,35.9,64.1
		c-0.6,10.5-3.8,11.4-6.1,31.9c-2.2,20,1,17.3-1.1,39.1c-0.8,8.4-0.8,10,1.7,20.2c0.3,1.4,7.7,12.2,16,13
		c14.9,1.5,20.7-36.7,20.7-40.3"/>
	<path class="st2" d="M84.2,321.5c-4.8,11.6-6.9,21.6-7.9,28.6c-0.6,3.7,1.3,25.1,4.9,52.5c1.7,13.2-0.7,18.2,0.9,15.9
		c0.4-0.6,25.2-6.9,37.6-3.2c6.1,1.8-11.6-6.3-19.3-22.4c-13.7-28.6,2.5-62.8,4.9-68c10.3-21.9,35.8-53.3,66.4-78.7
		c2.3-2,6.9-7.9,8.8-16.4c0.4-1.6,3.8-18.2-7.6-30.1c-0.8-0.8-10.4-10.5-22.9-9c-0.8,0.1-10.7,1.3-11.8,6.3
		c1.7,3.4,6.5,8.6,9.3,11.3c5.2,5,10.4,0.3,14.6,3.7c4.3,3.5,4.6,9.7,4.6,10.6c0.4,9.7-7.6,19-15.2,22.6
		c-11.1,5.3-29.8,22.1-40.8,42.8C100.5,307.2,97.6,310.1,84.2,321.5c-4.1,3.2-5.7-1.5-13,1.3c-7.5,2.9-11.9,9.6-17.8,21.6
		c-11.9,23.9-8.2,24.4-15,34.5c-10.1,15-18,13.4-24.3,28.1c-2.5,5.8-1.8,7.3-5.7,20.6c-3,10.5-13.5,22.5-15.7,28.1
		c-8.4,23.8-7.6,30-5.4,31.3c5.3,3,25.1-18.1,38.5-39.8c15.2-24.6,14.1-36.8,30.3-68.7c8-15.9,16.1-28.1,21.6-36"/>
	<path class="st5" d="M174.4,243.2c7.3,2.2,12.8,10.9,12.4,16.9c-0.2,3.6-2.3,8-6,9.4c-5.2,2.1-14.4-6.2-18.1-15.6"/>
	<path class="st5" d="M154.9,243.2c-15.9-13.3-31.7-28.8-37-38.2c-4.1-7.3-8.6-17.1-18.4-20.2c-5.9-1.9-9,2.6-14.3,0.2
		c-6.3-2.9-22.3-1-45.5-34.1c-14.5-20.7-17-27.7-16.2-35.3c1.2-11.7,10.3-20.6,12.8-22.2c12.7-8.1,26.3-6,28.6-5.6
		c35.3,6,46.6,58.6,47.5,63c0.5,2.4,1.5,8,0.2,14.7c-2.1,10.4-9.4,20.3-13,19.3c-1.6-0.4-1-2.9-3-5.5c-3.6-4.6-12.5-9.5-18.6-12
		c-7-2.9-12.3-8.6-22.9-19.8c-7.1-7.5-18.3-25.3-26.7-45.2"/>
	<path class="st5" d="M164.1,233c-1.4-2-9.6-12.7-13.3-18c-8.6-12.6-13-19.1-17.4-25.2c-7.6-10.6-11.4-16-16.4-21.6
		c-5.3-5.9-6.7-6.6-13.9-13.9c-10.9-11.1-13.8-15.7-20.6-23.1c-11.8-12.7-21.5-19.1-29.4-24.5c-9-6.3-13.6-9.4-15.3-8.2
		c-2.7,1.9,0,13.5,23.4,55.7"/>
	<path class="st5" d="M110.4,174.7c-17.8-18.9-43.7-46.1-61.6-65"/>
	<path class="st2" d="M120.6,209.1c-7.7,13.6-10.8,20-10.2,20.5c1,0.7,5.2-6.3,12.1-6.8c4.3-0.3,10.8,1.1,13,2.9"/>
	<path class="st2" d="M103.9,328c19.1,5.5,43.9,9.3,54.4,13.7c14.4,6.1,25.7,10.9,32.7,22.9s7.1,26.9,7.2,31.9
		c0.1,5.9-0.6,15.9-1.2,19.3l-19.1,20.3c-0.5-6.8-0.9-13.6-1.4-20.4c2.3-16.6-2-28-4.4-33.1c-13-27.6-46.1-34.3-54.4-36
		c-7.5-1.5-13.8-1.8-18.1-1.8"/>
	<path class="st3" d="M79.7,412.3c118.5,13,375.6-0.7,481.3-28.3c2.7,37.8-8.9,120.5-8.9,120.5c-3.6,48.8-38.9,82.2-87.2,90.2
		c-95.5,12.9-205.2,25.4-293.3-17.2c-26.1-14.9-64.9-46.3-71.3-75.7C100.9,502.2,64,413.8,79.7,412.3z"/>
	<path class="st6" d="M582.1,277.1c-47.5,8-85.3,101.8-64.9,121.1c9.3,8.9,33.4,4.5,40.9-7.2c8.2-12.7-6.9-28.6,2.4-45.5
		c5.9-10.7,17.6-14.6,22.1-16.1c25.4-8.4,57.1,7,65.4,28.4c2.1,5.5,0.5,5.7,1.1,27.6c0.8,29.7,3.7,28.6,4.1,52.4
		c0.5,25.6,2.2,31.1,9,39.1c8.9,10.5,21.7,7.2,22.5,7.2c27.1-2.5,29.7-41.3,31.7-48.2c1.5-5.1-9.3-3.1-17.9-2.9
		c-9.1,0.2-0.1,21.3-8.3,26.5c-0.5,0.3-4.6,3-7.5,1.5c-4.9-2.5-3-15.2-1.9-22.2c4.9-30.8,9.2-46.4,10.5-55.6
		c4.5-30.5-11.8-64.6-35.2-84.1c-23.2-19.3-50.3-22-55.2-22.4C598.1,276.6,589.5,275.9,582.1,277.1z"/>
	<path class="st6" d="M706.2,376.4c5.4-24.5,9-26.4,10.3-26.3c1.3,0.2,5.3,2.2,5.1,25.5"/>
	<path class="st6" d="M530.8,390.8c4.7-32.5,14.3-76.3,42.6-84.9c2.6-0.8,35.4-17.2,67.5,1.1c25.3,14.4,36.8,42.5,35.6,63.6
		c-0.6,10.4-3.8,11.3-6.1,31.7c-2.2,19.9,1,17.1-1,38.8c-0.8,8.3-0.8,9.9,1.7,20c0.3,1.4,7.7,12.1,15.9,12.9
		c14.8,1.5,20.5-40.5,20.5-44.1"/>
	<path class="st6" d="M-3.1,456.5c2.2-5.6,12.5-16,15.5-26.4c3.8-13.2,3.2-15.7,5.6-21.4c6.3-14.6,12.2-10.5,22.3-25.4
		c6.7-10,4.4-13.5,16.2-37.2c5.9-11.9,12.6-17.7,20.1-20.6c7.2-2.8,3.6-0.6,7.6-3.9c13.4-11.2,20-14.8,30.1-31.5
		c8.6-21.6,29.6-36.6,40.6-41.8c7.5-3.6,15.4-13.4,15-23.1c0-0.9,1.2-6.5-3-9.9s-9.3,1.3-14.5-3.7c-2.8-2.7-8.6-9.7-10.3-13.1
		c1.1-4.9,11.9-4.3,12.7-4.4c12.4-1.5,22,8.2,22.7,8.9c11.3,11.8,5.3,28.1,5,29.7c-1.9,8.4-5.3,14.2-7.7,16.2
		c-30.4,25.2-55.7,55-65.9,76.7c-5.7,4.3-20.2,40-3.4,69.3c7.6,16,25.2,24.1,19.2,22.3c-12.3-3.7-40,0.8-40.3,1.3
		c-1.6,2.2,2.7-0.6,1-13.8c-3.6-27.2-6.9-47.9-6.4-51.7c1-6.9,0.5-19.9,5.2-31.4"/>
	<path class="st6" d="M-12.7,494.4c5-6,25.5-24.3,41.9-44.9c18.1-31.1,13-40.8,30.4-69.1c4.6-7.9,9.5-22.7,18-37.9"/>
	<path class="st6" d="M175.5,241.6c7.2,2.2,14.7,14.5,14.3,20.5c-0.2,3.6-4.9,9.1-8.5,10.6c-5.2,2-14.9-9.5-18.6-18.8"/>
	<path class="st6" d="M154.9,243.2c-15.8-13.2-26.8-25.5-32-34.8c-4.1-7.2-8.5-17-18.3-20c-5.8-1.8-8.9,2.6-14.2,0.2
		c-6.3-2.8-22.1-1-45.2-33.9c-14.4-20.6-19.4-28.4-18.6-36c1.2-11.6,10.1-21.1,12.5-22.6c12.6-8,28.8-4.5,31.2-4.1
		c35.1,5.9,46.3,58.2,47.2,62.6c0.5,2.4,0.8,6.9-0.5,13.6c-5,8.9-10.3,20.4-12.3,20.2c-1.6-0.4-1-2.9-3-5.5
		c-3.6-4.6-12.4-9.4-18.4-11.9c-7-2.9-12.2-8.5-22.8-19.7c-7.1-7.5-22.9-29.2-31.2-49"/>
	<path class="st6" d="M164.1,229.9c-1.4-2-4.9-6.3-8.5-11.6c-8.5-12.5-12.9-18.9-17.2-25.1c-7.5-10.5-11.4-15.9-16.3-21.4
		c-5.2-5.9-6.7-6.6-13.9-13.9c-10.9-11-13.7-15.6-20.5-22.9c-11.7-12.6-21.4-18.9-29.2-24.3c-9-6.2-16.3-10.4-17.9-9.3
		c-2.7,1.9,3.4,16.7,26.7,58.6"/>
	<path class="st6" d="M110.4,172.9c-17.7-18.7-43.9-44.5-61.6-63.2"/>
	<path class="st6" d="M120.6,209.1c-7.6,13.5-8.5,22-7.9,22.4c1,0.7,8-5,14.8-5.6c4.3-0.3,8.1-0.3,10.3,1.5"/>
	<path class="st6" d="M181.1,417.7c0.7-14.7-1.4-28-4.4-32.8c-10.2-16.6-31.9-32.5-54.1-35.8c-9.9-1.5-21.2-2.1-24.8-3.1"/>
	<path class="st6" d="M103.9,328c22.3,0.7,48.7,11.7,59.1,16.1c14.3,6.1,25.5,10.8,32.5,22.8c6.9,12,7.1,26.7,7.1,31.7
		c0.1,5.9-0.6,15.8-1.2,19.1"/>
	<path class="st3" d="M84.9,414.2c117.6,12.9,373-0.7,478-28.1c2.7,37.6-8.8,119.7-8.8,119.7c-3.6,48.5-38.6,81.6-86.6,89.6
		c-94.8,12.8-203.7,25.2-291.3-17.1c-25.9-14.8-64.4-46-70.8-75.1C105.4,503.1,63.9,411.9,84.9,414.2z"/>
	<text transform="matrix(1 0 0 1 162.7001 517.0529)" class="st7 st8">Recipe Kraken</text>
</g>
</svg>
